<mxfile host="app.diagrams.net" agent="Mozilla/5.0 (Windows NT 10.0; Win64; x64) AppleWebKit/537.36 (KHTML, like Gecko) Chrome/140.0.0.0 Safari/537.36" version="28.2.7">
  <diagram name="PÃ¡gina-1" id="Y6UcipXt3WbVuK55bRc3">
    <mxGraphModel dx="1186" dy="755" grid="1" gridSize="10" guides="1" tooltips="1" connect="1" arrows="1" fold="1" page="1" pageScale="1" pageWidth="827" pageHeight="1169" math="0" shadow="0">
      <root>
        <mxCell id="0" />
        <mxCell id="1" parent="0" />
        <mxCell id="K7fEcMI6iq_2AUcMG_aX-1" value="ALUNO" style="swimlane;childLayout=stackLayout;horizontal=1;startSize=50;horizontalStack=0;rounded=1;fontSize=14;fontStyle=0;strokeWidth=2;resizeParent=0;resizeLast=1;shadow=0;dashed=0;align=center;arcSize=4;whiteSpace=wrap;html=1;" parent="1" vertex="1">
          <mxGeometry x="50" y="300" width="160" height="150" as="geometry" />
        </mxCell>
        <mxCell id="K7fEcMI6iq_2AUcMG_aX-2" value="&lt;u&gt;NumAluno&lt;/u&gt;&lt;div&gt;NomeAluno&lt;/div&gt;&lt;div&gt;DataNascimento&lt;/div&gt;&lt;div&gt;&lt;font style=&quot;color: rgb(153, 0, 0);&quot;&gt;CodCurso&lt;/font&gt;&lt;/div&gt;&lt;div&gt;&lt;font style=&quot;color: rgb(153, 0, 0);&quot;&gt;Inicio&lt;/font&gt;&lt;/div&gt;&lt;div&gt;&lt;font style=&quot;color: rgb(153, 0, 0);&quot;&gt;Concluiu&amp;nbsp;&lt;/font&gt;&lt;font style=&quot;color: rgb(153, 0, 0);&quot;&gt;?&lt;/font&gt;&lt;/div&gt;" style="align=left;strokeColor=none;fillColor=none;spacingLeft=4;spacingRight=4;fontSize=12;verticalAlign=top;resizable=0;rotatable=0;part=1;html=1;whiteSpace=wrap;" parent="K7fEcMI6iq_2AUcMG_aX-1" vertex="1">
          <mxGeometry y="50" width="160" height="100" as="geometry" />
        </mxCell>
        <mxCell id="K7fEcMI6iq_2AUcMG_aX-3" value="NOTA" style="swimlane;childLayout=stackLayout;horizontal=1;startSize=50;horizontalStack=0;rounded=1;fontSize=14;fontStyle=0;strokeWidth=2;resizeParent=0;resizeLast=1;shadow=0;dashed=0;align=center;arcSize=4;whiteSpace=wrap;html=1;" parent="1" vertex="1">
          <mxGeometry x="680" y="250" width="160" height="130" as="geometry" />
        </mxCell>
        <mxCell id="K7fEcMI6iq_2AUcMG_aX-4" value="&lt;div&gt;&lt;u&gt;IdNota&lt;/u&gt;&lt;/div&gt;Valor&lt;div&gt;DataNota&lt;/div&gt;&lt;div&gt;&lt;font style=&quot;color: rgb(153, 0, 0);&quot;&gt;NumAluno&lt;/font&gt;&lt;/div&gt;&lt;div&gt;&lt;font color=&quot;#990000&quot;&gt;CodModulo&lt;/font&gt;&lt;/div&gt;" style="align=left;strokeColor=none;fillColor=none;spacingLeft=4;spacingRight=4;fontSize=12;verticalAlign=top;resizable=0;rotatable=0;part=1;html=1;whiteSpace=wrap;" parent="K7fEcMI6iq_2AUcMG_aX-3" vertex="1">
          <mxGeometry y="50" width="160" height="80" as="geometry" />
        </mxCell>
        <mxCell id="K7fEcMI6iq_2AUcMG_aX-5" value="PROFESSOR" style="swimlane;childLayout=stackLayout;horizontal=1;startSize=50;horizontalStack=0;rounded=1;fontSize=14;fontStyle=0;strokeWidth=2;resizeParent=0;resizeLast=1;shadow=0;dashed=0;align=center;arcSize=4;whiteSpace=wrap;html=1;" parent="1" vertex="1">
          <mxGeometry x="760" y="810" width="160" height="120" as="geometry" />
        </mxCell>
        <mxCell id="K7fEcMI6iq_2AUcMG_aX-6" value="&lt;u&gt;Email&lt;/u&gt;&lt;div&gt;Nome&lt;/div&gt;" style="align=left;strokeColor=none;fillColor=none;spacingLeft=4;spacingRight=4;fontSize=12;verticalAlign=top;resizable=0;rotatable=0;part=1;html=1;whiteSpace=wrap;" parent="K7fEcMI6iq_2AUcMG_aX-5" vertex="1">
          <mxGeometry y="50" width="160" height="70" as="geometry" />
        </mxCell>
        <mxCell id="K7fEcMI6iq_2AUcMG_aX-7" value="CURSO" style="swimlane;childLayout=stackLayout;horizontal=1;startSize=50;horizontalStack=0;rounded=1;fontSize=14;fontStyle=0;strokeWidth=2;resizeParent=0;resizeLast=1;shadow=0;dashed=0;align=center;arcSize=4;whiteSpace=wrap;html=1;" parent="1" vertex="1">
          <mxGeometry x="254" y="490" width="160" height="120" as="geometry" />
        </mxCell>
        <mxCell id="K7fEcMI6iq_2AUcMG_aX-8" value="&lt;u&gt;CodCurso&lt;/u&gt;&lt;div&gt;NomeCurso&lt;/div&gt;" style="align=left;strokeColor=none;fillColor=none;spacingLeft=4;spacingRight=4;fontSize=12;verticalAlign=top;resizable=0;rotatable=0;part=1;html=1;whiteSpace=wrap;" parent="K7fEcMI6iq_2AUcMG_aX-7" vertex="1">
          <mxGeometry y="50" width="160" height="70" as="geometry" />
        </mxCell>
        <mxCell id="K7fEcMI6iq_2AUcMG_aX-9" value="DISCIPLINA" style="swimlane;childLayout=stackLayout;horizontal=1;startSize=50;horizontalStack=0;rounded=1;fontSize=14;fontStyle=0;strokeWidth=2;resizeParent=0;resizeLast=1;shadow=0;dashed=0;align=center;arcSize=4;whiteSpace=wrap;html=1;" parent="1" vertex="1">
          <mxGeometry x="254" y="790" width="160" height="120" as="geometry" />
        </mxCell>
        <mxCell id="K7fEcMI6iq_2AUcMG_aX-10" value="&lt;u&gt;CodDisciplina&lt;/u&gt;&lt;div&gt;Disciplina&lt;/div&gt;" style="align=left;strokeColor=none;fillColor=none;spacingLeft=4;spacingRight=4;fontSize=12;verticalAlign=top;resizable=0;rotatable=0;part=1;html=1;whiteSpace=wrap;" parent="K7fEcMI6iq_2AUcMG_aX-9" vertex="1">
          <mxGeometry y="50" width="160" height="70" as="geometry" />
        </mxCell>
        <mxCell id="K7fEcMI6iq_2AUcMG_aX-11" value="MODULO" style="swimlane;childLayout=stackLayout;horizontal=1;startSize=50;horizontalStack=0;rounded=1;fontSize=14;fontStyle=0;strokeWidth=2;resizeParent=0;resizeLast=1;shadow=0;dashed=0;align=center;arcSize=4;whiteSpace=wrap;html=1;" parent="1" vertex="1">
          <mxGeometry x="507" y="760" width="160" height="120" as="geometry" />
        </mxCell>
        <mxCell id="K7fEcMI6iq_2AUcMG_aX-12" value="&lt;u&gt;CodModulo&lt;/u&gt;&lt;div&gt;Descricao&lt;/div&gt;&lt;div&gt;&lt;font style=&quot;color: rgb(153, 0, 0);&quot;&gt;CodDisciplina&lt;/font&gt;&lt;/div&gt;&lt;div&gt;&lt;font color=&quot;#990000&quot;&gt;Email&lt;/font&gt;&lt;/div&gt;" style="align=left;strokeColor=none;fillColor=none;spacingLeft=4;spacingRight=4;fontSize=12;verticalAlign=top;resizable=0;rotatable=0;part=1;html=1;whiteSpace=wrap;" parent="K7fEcMI6iq_2AUcMG_aX-11" vertex="1">
          <mxGeometry y="50" width="160" height="70" as="geometry" />
        </mxCell>
        <mxCell id="ICQenscEK4omwbSQhgk_-4" value="" style="endArrow=classic;html=1;rounded=0;exitX=0.994;exitY=0.871;exitDx=0;exitDy=0;exitPerimeter=0;entryX=0;entryY=0.157;entryDx=0;entryDy=0;entryPerimeter=0;edgeStyle=orthogonalEdgeStyle;" edge="1" parent="1" source="K7fEcMI6iq_2AUcMG_aX-12" target="K7fEcMI6iq_2AUcMG_aX-6">
          <mxGeometry width="50" height="50" relative="1" as="geometry">
            <mxPoint x="380" y="640" as="sourcePoint" />
            <mxPoint x="430" y="590" as="targetPoint" />
          </mxGeometry>
        </mxCell>
        <mxCell id="ICQenscEK4omwbSQhgk_-5" value="R3" style="swimlane;childLayout=stackLayout;horizontal=1;startSize=50;horizontalStack=0;rounded=1;fontSize=14;fontStyle=0;strokeWidth=2;resizeParent=0;resizeLast=1;shadow=0;dashed=0;align=center;arcSize=4;whiteSpace=wrap;html=1;" vertex="1" parent="1">
          <mxGeometry x="254" y="640" width="160" height="120" as="geometry" />
        </mxCell>
        <mxCell id="ICQenscEK4omwbSQhgk_-6" value="&lt;u&gt;CodCurso&lt;/u&gt;&lt;div&gt;&lt;u&gt;CodDisciplina&lt;/u&gt;&lt;/div&gt;" style="align=left;strokeColor=none;fillColor=none;spacingLeft=4;spacingRight=4;fontSize=12;verticalAlign=top;resizable=0;rotatable=0;part=1;html=1;whiteSpace=wrap;" vertex="1" parent="ICQenscEK4omwbSQhgk_-5">
          <mxGeometry y="50" width="160" height="70" as="geometry" />
        </mxCell>
        <mxCell id="ICQenscEK4omwbSQhgk_-9" style="edgeStyle=orthogonalEdgeStyle;rounded=0;orthogonalLoop=1;jettySize=auto;html=1;entryX=-0.006;entryY=0.157;entryDx=0;entryDy=0;entryPerimeter=0;exitX=0.988;exitY=0.57;exitDx=0;exitDy=0;exitPerimeter=0;" edge="1" parent="1" source="K7fEcMI6iq_2AUcMG_aX-2" target="K7fEcMI6iq_2AUcMG_aX-8">
          <mxGeometry relative="1" as="geometry" />
        </mxCell>
        <mxCell id="ICQenscEK4omwbSQhgk_-12" style="edgeStyle=orthogonalEdgeStyle;rounded=0;orthogonalLoop=1;jettySize=auto;html=1;entryX=0;entryY=0.25;entryDx=0;entryDy=0;exitX=-0.012;exitY=0.9;exitDx=0;exitDy=0;exitPerimeter=0;" edge="1" parent="1" source="K7fEcMI6iq_2AUcMG_aX-4" target="K7fEcMI6iq_2AUcMG_aX-12">
          <mxGeometry relative="1" as="geometry" />
        </mxCell>
        <mxCell id="ICQenscEK4omwbSQhgk_-15" style="edgeStyle=orthogonalEdgeStyle;rounded=0;orthogonalLoop=1;jettySize=auto;html=1;entryX=1.025;entryY=0.114;entryDx=0;entryDy=0;entryPerimeter=0;exitX=1;exitY=0.25;exitDx=0;exitDy=0;" edge="1" parent="1" source="ICQenscEK4omwbSQhgk_-6" target="K7fEcMI6iq_2AUcMG_aX-8">
          <mxGeometry relative="1" as="geometry">
            <Array as="points">
              <mxPoint x="414" y="700" />
              <mxPoint x="440" y="700" />
              <mxPoint x="440" y="548" />
            </Array>
          </mxGeometry>
        </mxCell>
        <mxCell id="ICQenscEK4omwbSQhgk_-18" style="edgeStyle=orthogonalEdgeStyle;rounded=0;orthogonalLoop=1;jettySize=auto;html=1;entryX=0;entryY=0.25;entryDx=0;entryDy=0;exitX=0;exitY=0.429;exitDx=0;exitDy=0;exitPerimeter=0;" edge="1" parent="1" source="ICQenscEK4omwbSQhgk_-6" target="K7fEcMI6iq_2AUcMG_aX-10">
          <mxGeometry relative="1" as="geometry" />
        </mxCell>
        <mxCell id="ICQenscEK4omwbSQhgk_-22" value="" style="endArrow=classic;html=1;rounded=0;exitX=0;exitY=0.614;exitDx=0;exitDy=0;exitPerimeter=0;entryX=0.988;entryY=0.171;entryDx=0;entryDy=0;entryPerimeter=0;" edge="1" parent="1" source="K7fEcMI6iq_2AUcMG_aX-12" target="K7fEcMI6iq_2AUcMG_aX-10">
          <mxGeometry width="50" height="50" relative="1" as="geometry">
            <mxPoint x="390" y="650" as="sourcePoint" />
            <mxPoint x="440" y="600" as="targetPoint" />
          </mxGeometry>
        </mxCell>
        <mxCell id="ICQenscEK4omwbSQhgk_-24" value="" style="endArrow=classic;html=1;rounded=0;entryX=1.013;entryY=0.12;entryDx=0;entryDy=0;entryPerimeter=0;exitX=0;exitY=0.75;exitDx=0;exitDy=0;" edge="1" parent="1" source="K7fEcMI6iq_2AUcMG_aX-4" target="K7fEcMI6iq_2AUcMG_aX-2">
          <mxGeometry width="50" height="50" relative="1" as="geometry">
            <mxPoint x="390" y="650" as="sourcePoint" />
            <mxPoint x="440" y="600" as="targetPoint" />
          </mxGeometry>
        </mxCell>
      </root>
    </mxGraphModel>
  </diagram>
</mxfile>
